<svg xmlns="http://www.w3.org/2000/svg" preserveAspectRatio="xMidYMid meet" viewBox="0 0 137 55">
  <g fill="#000000" fill-rule="evenodd">
    <polygon points="115.086 .795 136.606 .795 136.606 53.851 122.631 53.851 122.631 12.725 115.086 12.725"/>
    <path d="M80.7433021 21.0730639C83.5711967 20.902688 86.2492991 20.951485 88.8489979 20.5205827 91.0657569 20.1533647 92.2083864 18.2304323 92.1456636 15.9196053 92.0841786 13.655094 90.7756636 11.7631767 88.5593172 11.5315977 86.0124377 11.2648684 83.4160401 11.4695677 80.7433021 11.4695677L80.7433021 21.0730639zM80.8068503 33.0589286L80.8068503 43.2455075C83.4663834 43.2455075 85.9975822 43.4022368 88.5007208 43.2025 91.1379708 42.9920113 92.7856846 40.9768609 92.8777057 38.3265226 92.973028 35.5893421 91.3620401 33.3703195 88.6620672 33.1118609 86.1028081 32.8670489 83.502284 33.0589286 80.8068503 33.0589286L80.8068503 33.0589286zM98.9824587 26.6470865C105.784591 30.619906 107.235883 36.5168985 105.429299 43.4601316 103.844721 49.5506579 99.4933202 53.1732143 93.4801756 53.5491165 84.9424346 54.0825752 76.3465099 53.6843421 67.6172991 53.6843421L67.6172991.79212406C68.3117901.749116541 68.9121967.679642857 69.5126033.679229323 76.1104738.672612782 82.7087569.662274436 89.3062148.691635338 90.4674136.697011278 91.6393413.809078947 92.7869226.995169173 98.8863111 1.98558271 103.245965 5.13050752 104.814862 11.3331015 106.395314 17.5840789 104.698082 22.7586278 98.9824587 26.6470865L98.9824587 26.6470865zM43.6750636 27.2611429C43.6663979 19.0074211 36.9806328 12.2883233 28.7317473 12.2436617 20.4036328 12.1981729 13.5882955 18.9573835 13.5750907 27.2747895 13.5614732 35.6108045 20.3305937 42.4121955 28.6422021 42.4134361 36.9624762 42.4146767 43.6837292 35.6397519 43.6750636 27.2611429M.000123795181 26.7405038C.225843675 13.2580602 10.3333075 2.05418797 24.2577895.310315789 35.4596027-1.09239098 45.0722985 2.20719549 51.9767684 11.3070075 64.0216268 27.1821579 54.6903587 50.3272331 34.9524551 53.9994135 24.0308316 56.0315188 14.4874611 53.3332105 6.78905151 45.1493759 2.04398223 40.1050902.0331358434 33.9029098.000123795181 26.7405038"/>
  </g>
</svg>
