<svg xmlns="http://www.w3.org/2000/svg" width="29" height="45" viewBox="0 0 29 45">
  <path fill="none" stroke="#000000" stroke-width="6.25" d="M7.95492465,8.50180078 C5.42088915,10.244404 3.67102509,4.13440149 7.95492465,1.38617101 C11.4473919,-0.850169771 12.20252,2.96903559 12.5292581,5.32154992 C13.5094724,11.8200077 5.87469207,16.3217327 6.96018865,22.722169 C7.35227437,25.0383791 9.71204955,26.4978093 12.1625853,26.1238757 C13.7236673,25.8878982 14.2900134,24.6462934 14.1702094,23.5353839 C13.9414928,21.4152166 10.9028284,22.1086275 11.0371541,23.3030368 C11.0988713,23.811296 11.3203271,24.0291214 11.7269345,24.2215339 C11.5381525,24.3812725 10.6305467,24.7878799 9.62128896,24.1344037 C7.99848973,23.0924722 8.23083682,19.6798743 9.73020166,17.1748822 C12.1153898,13.1814165 16.653419,6.69021953 12.246085,0.758107773 C22.0845323,5.53937533 8.97870403,18.8376161 17.3903949,19.0808544 C19.6194749,19.1389412 17.3068952,14.8332591 18.8861294,16.3580369 C19.5033013,17.2148168 21.627099,19.6508309 21.1732961,24.0400127 C20.5815371,29.7034731 16.3629851,32.3282692 13.4767986,33.1886796 C8.8334871,34.5827621 -0.32970144,31.6275975 0.0950580923,22.3409746 C0.421796194,15.1454755 9.67211489,10.3714688 9.98070088,7.38363039 C10.2638739,4.61361737 5.94367011,5.78624411 7.96218549,8.50180078" transform="translate(4 8)"/>
</svg>
